<svg width="34" height="20" viewBox="0 0 34 20" fill="none" xmlns="http://www.w3.org/2000/svg">
<path d="M0.887032 19.3391C0.133259 20.0932 -0.469761 19.7161 0.510147 17.9816C2.24383 14.8897 4.42977 11.7978 6.6911 8.78134C7.21874 8.02722 7.82176 7.2731 8.3494 6.44356L8.72629 5.84026L8.95242 5.53861L9.17855 5.23697C9.48006 4.8599 9.78157 4.40743 10.1585 4.03037C10.8369 3.20083 11.5153 2.44671 12.3444 1.69259C12.5705 1.46635 12.7967 1.31553 13.0228 1.08929L13.4751 0.787641C13.7012 0.636815 13.852 0.561404 14.0781 0.410579C14.3042 0.259753 14.5304 0.259755 14.7565 0.184342C14.9826 0.10893 15.2088 0.033517 15.4349 0.033517C15.661 -0.0418957 15.8871 0.033517 16.1133 0.0335171C16.3394 0.10893 16.5655 0.10893 16.7917 0.184343C17.0178 0.259755 17.2439 0.335166 17.4701 0.410579C17.6962 0.485992 17.7716 0.561403 17.9223 0.636815C18.2238 0.787641 18.45 0.863052 18.6761 1.01388C19.1284 1.24011 19.5806 1.54176 20.0329 1.84341C20.4852 2.14506 20.9374 2.44671 21.3143 2.74836C21.5405 2.89918 21.7666 3.05001 21.9927 3.27625C22.0681 3.35166 22.2189 3.50248 22.3696 3.5779L22.6711 3.80413C24.1787 5.16155 25.5355 6.59439 26.8169 8.02722C29.3797 10.9683 31.4149 14.1356 32.9978 17.3029C35.4099 22.0539 33.1486 19.7915 29.6058 16.1717C27.1938 13.6831 24.6309 11.1191 21.9173 8.78134C21.2389 8.17804 20.5605 7.57475 19.8068 7.04686C19.2038 6.59439 18.45 6.0665 17.7716 5.61403C17.3947 5.38779 17.0178 5.16155 16.6409 4.93532C16.4902 4.8599 16.264 4.70908 16.1133 4.63367C15.9625 4.55826 15.661 4.40743 15.7364 4.48284C15.661 4.55825 15.5103 4.63367 15.3595 4.78449C14.1535 5.76485 12.872 7.12227 11.7414 8.32887C10.5353 9.7617 9.25393 11.0437 7.97251 12.3257C5.48506 14.8143 3.07298 17.0767 0.887032 19.3391Z" fill="#434659"/>
</svg>
