<svg width="26" height="46" viewBox="0 0 26 46" fill="none" xmlns="http://www.w3.org/2000/svg">
<path d="M0.87961 44.4136C-0.0978339 45.405 0.390888 46.1981 2.63901 44.9093C6.64653 42.6291 10.654 39.7541 14.5638 36.78C15.5413 36.086 16.5187 35.2929 17.5939 34.599L18.3759 34.1033L18.7668 33.8059L19.1578 33.5085C19.6465 33.1119 20.233 32.7154 20.7217 32.2197C21.7969 31.3274 22.7743 30.4352 23.7518 29.3447C24.045 29.0472 24.2405 28.7498 24.5337 28.4524L24.9247 27.8576C25.1202 27.5602 25.218 27.3619 25.4134 27.0645C25.6089 26.7671 25.6089 26.4697 25.7067 26.1722C25.8044 25.8748 25.9022 25.5774 25.9022 25.28C25.9999 24.9826 25.9022 24.6852 25.9022 24.3878C25.8044 24.0904 25.8044 23.7929 25.7067 23.4955C25.6089 23.1981 25.5112 22.9007 25.4134 22.6033C25.3157 22.3059 25.218 22.2067 25.1202 22.0085C24.9247 21.6119 24.827 21.3145 24.6315 21.0171C24.3383 20.4222 23.9473 19.8274 23.5563 19.2326C23.1653 18.6378 22.7743 18.0429 22.3834 17.5472C22.1879 17.2498 21.9924 16.9524 21.6992 16.655C21.6014 16.5559 21.4059 16.3576 21.3082 16.1593L21.0149 15.7628C19.2556 13.78 17.3984 11.9955 15.5413 10.3102C11.7292 6.93949 7.62397 4.26277 3.51871 2.18087C-2.63919 -0.991545 0.293143 1.98259 4.98487 6.64208C8.21044 9.81449 11.5337 13.1852 14.5638 16.7541C15.3458 17.6464 16.1277 18.5386 16.8119 19.53C17.3984 20.3231 18.0826 21.3145 18.6691 22.2067C18.9623 22.7024 19.2556 23.1981 19.5488 23.6938C19.6465 23.8921 19.842 24.1895 19.9398 24.3878C20.0375 24.586 20.233 24.9826 20.1353 24.8835C20.0375 24.9826 19.9398 25.1809 19.7443 25.3791C18.4736 26.9654 16.7142 28.6507 15.1503 30.1378C13.2931 31.724 11.6315 33.4093 9.96984 35.0947C6.74427 38.3662 3.81194 41.5386 0.87961 44.4136Z" fill="#434659"/>
</svg>
