<svg width="26" height="46" viewBox="0 0 26 46" fill="none" xmlns="http://www.w3.org/2000/svg">
<path d="M25.1204 44.4136C26.0978 45.405 25.6091 46.1981 23.361 44.9093C19.3535 42.6291 15.346 39.7541 11.4362 36.78C10.4587 36.086 9.48129 35.2929 8.4061 34.599L7.62415 34.1033L7.23317 33.8059L6.84219 33.5085C6.35347 33.1119 5.767 32.7154 5.27828 32.2197C4.20309 31.3274 3.22565 30.4352 2.24821 29.3447C1.95498 29.0472 1.75949 28.7498 1.46625 28.4524L1.07528 27.8576C0.879787 27.5602 0.782043 27.3619 0.586554 27.0645C0.391066 26.7671 0.391066 26.4697 0.293322 26.1722C0.195578 25.8748 0.0978317 25.5774 0.0978317 25.28C8.7738e-05 24.9826 0.0978317 24.6852 0.0978317 24.3878C0.195576 24.0904 0.195578 23.7929 0.293322 23.4955C0.391066 23.1981 0.48881 22.9007 0.586554 22.6033C0.684298 22.3059 0.782042 22.2067 0.879786 22.0085C1.07528 21.6119 1.17302 21.3145 1.36851 21.0171C1.66174 20.4222 2.05272 19.8274 2.4437 19.2326C2.83467 18.6378 3.22565 18.0429 3.61663 17.5472C3.81212 17.2498 4.00761 16.9524 4.30084 16.655C4.39858 16.5559 4.59407 16.3576 4.69182 16.1593L4.98505 15.7628C6.74445 13.78 8.60159 11.9955 10.4587 10.3102C14.2708 6.93949 18.376 4.26277 22.4813 2.18087C28.6392 -0.991545 25.7069 1.98259 21.0151 6.64208C17.7896 9.81449 14.4663 13.1852 11.4362 16.7541C10.6542 17.6464 9.87227 18.5386 9.18806 19.53C8.60159 20.3231 7.91738 21.3145 7.33092 22.2067C7.03768 22.7024 6.74445 23.1981 6.45122 23.6938C6.35347 23.8921 6.15798 24.1895 6.06024 24.3878C5.96249 24.586 5.76701 24.9826 5.86475 24.8835C5.96249 24.9826 6.06024 25.1809 6.25573 25.3791C7.5264 26.9654 9.2858 28.6507 10.8497 30.1378C12.7069 31.724 14.3685 33.4093 16.0302 35.0947C19.2557 38.3662 22.1881 41.5386 25.1204 44.4136Z" fill="#434659"/>
</svg>
