<svg width="34" height="19" viewBox="0 0 34 19" fill="none" xmlns="http://www.w3.org/2000/svg">
<path d="M0.887032 0.627888C0.133259 -0.0885294 -0.469761 0.269679 0.510147 1.91744C2.24383 4.85475 4.42977 7.79206 6.6911 10.6577C7.21874 11.3741 7.82176 12.0906 8.3494 12.8786L8.72629 13.4517L8.95242 13.7383L9.17855 14.0249C9.48006 14.3831 9.78157 14.8129 10.1585 15.1712C10.8369 15.9592 11.5153 16.6756 12.3444 17.392C12.5705 17.607 12.7967 17.7503 13.0228 17.9652L13.4751 18.2517C13.7012 18.395 13.852 18.4667 14.0781 18.61C14.3042 18.7532 14.5304 18.7532 14.7565 18.8249C14.9826 18.8965 15.2087 18.9682 15.4349 18.9682C15.661 19.0398 15.8871 18.9682 16.1133 18.9682C16.3394 18.8965 16.5655 18.8965 16.7917 18.8249C17.0178 18.7532 17.2439 18.6816 17.4701 18.61C17.6962 18.5383 17.7716 18.4667 17.9223 18.395C18.2238 18.2517 18.45 18.1801 18.6761 18.0368C19.1284 17.8219 19.5806 17.5353 20.0329 17.2488C20.4852 16.9622 20.9374 16.6756 21.3143 16.3891C21.5405 16.2458 21.7666 16.1025 21.9927 15.8876C22.0681 15.8159 22.2189 15.6726 22.3696 15.601L22.6711 15.3861C24.1787 14.0965 25.5355 12.7353 26.8169 11.3741C29.3797 8.58012 31.4149 5.57117 32.9978 2.56221C35.4099 -1.95121 33.1486 0.198038 29.6058 3.63684C27.1938 6.00102 24.6309 8.43683 21.9173 10.6577C21.2389 11.2309 20.5605 11.804 19.8068 12.3055C19.2038 12.7353 18.45 13.2368 17.7716 13.6667C17.3947 13.8816 17.0178 14.0965 16.6409 14.3115C16.4902 14.3831 16.264 14.5264 16.1133 14.598C15.9625 14.6697 15.661 14.8129 15.7364 14.7413C15.661 14.6697 15.5103 14.598 15.3595 14.4547C14.1535 13.5234 12.872 12.2338 11.7414 11.0876C10.5353 9.72638 9.25393 8.50847 7.97251 7.29057C5.48506 4.92639 3.07298 2.77714 0.887032 0.627888Z" fill="#434659"/>
</svg>
