<svg width="121" height="35" viewBox="0 0 121 35" fill="none" xmlns="http://www.w3.org/2000/svg">
<path d="M5.26576 8.32245C5.26576 9.1692 5.73007 9.83356 6.65871 10.3156C7.58734 10.7975 8.68364 11.2405 9.94762 11.6573C11.2116 12.0742 12.5143 12.5041 13.8427 12.947C15.1712 13.3899 16.2933 14.2627 17.1832 15.5654C18.0732 16.8811 18.5246 18.5615 18.5246 20.6458C18.5246 22.7562 17.6475 24.4887 15.9063 25.8305C14.1652 27.1723 12.037 27.8366 9.52199 27.8366C6.20729 27.8366 3.33111 27.1071 0.893445 25.6351V20.8412C3.13764 22.5347 5.65269 23.3815 8.42569 23.3815C12.037 23.3815 13.8298 22.3523 13.8169 20.2941C13.8169 19.3822 13.4945 18.6136 12.8367 18.0014C12.1918 17.3891 11.3664 16.9202 10.3861 16.6075C9.40591 16.2949 8.33541 15.9562 7.18751 15.5914C6.03962 15.2267 4.96911 14.8098 3.97599 14.3539C2.98287 13.8979 2.15742 13.1684 1.51253 12.1914C0.880547 11.2014 0.558105 9.98989 0.558105 8.54391C0.558105 5.99065 1.44805 4.07571 3.21503 2.77303C4.98201 1.48337 7.20041 0.832031 9.87023 0.832031C12.2176 0.832031 14.5521 1.44429 16.8866 2.66881V7.30636C14.8745 5.9646 12.7206 5.2872 10.4248 5.2872C8.98029 5.2872 7.76791 5.53471 6.76189 6.01671C5.75587 6.51172 5.26576 7.26728 5.26576 8.32245ZM34.5564 7.78835H39.2511V18.5876C39.2511 21.4795 38.4773 23.7462 36.9167 25.3876C35.356 27.029 33.2021 27.8366 30.4291 27.8366C27.6561 27.8366 25.5022 27.0159 23.9545 25.3876C22.4068 23.7592 21.6458 21.4926 21.6458 18.5876V7.78835H26.3535V19.278C26.3535 20.8673 26.6759 22.0136 27.3079 22.7171C27.9528 23.4205 28.9846 23.7592 30.4291 23.7592C31.8995 23.7592 32.9571 23.4075 33.5891 22.7171C34.2339 22.0136 34.5435 20.8673 34.5435 19.278V7.78835H34.5564ZM51.0396 7.51479C51.6845 7.51479 52.3294 7.5669 52.9743 7.67111C53.6192 7.77533 54.3672 8.04889 55.2443 8.47877C56.1084 8.92169 56.8565 9.48184 57.4756 10.1723C58.0946 10.8627 58.6363 11.8918 59.0878 13.2336C59.5392 14.5753 59.7713 16.1385 59.7713 17.8972C59.7713 21.1148 58.9846 23.5899 57.424 25.3094C55.8633 27.029 53.632 27.9018 50.7172 27.9018C49.6209 27.9018 48.5504 27.7845 47.5057 27.55V34.832H42.798V14.1585C42.798 12.3477 43.4687 10.7845 44.81 9.48184C46.1772 8.16613 48.2537 7.51479 51.0396 7.51479ZM50.4076 24.2412C51.9296 24.2412 53.0774 23.7983 53.8771 22.8995C54.6768 22.0006 55.0766 20.4244 55.0766 18.1577C55.0766 15.8389 54.7799 14.1715 54.1738 13.1424C53.5805 12.1133 52.5357 11.5922 51.0396 11.5922C48.6922 11.5922 47.5186 12.2956 47.5186 13.7156V24.0067C48.602 24.1631 49.5693 24.2412 50.4076 24.2412ZM72.3724 23.7592C74.6682 23.7592 76.8866 23.2512 79.0276 22.2351V26.065C76.8608 27.2504 74.4102 27.8366 71.663 27.8366C70.7989 27.8366 69.9863 27.7715 69.2124 27.6282C68.4515 27.4849 67.6518 27.1853 66.8393 26.7424C66.0138 26.2864 65.3173 25.7133 64.7241 25.0228C64.1308 24.3324 63.6535 23.3684 63.2666 22.1309C62.8926 20.9064 62.6991 19.4864 62.6991 17.8711C62.6991 14.6926 63.3956 12.1654 64.7885 10.2634C66.1815 8.36153 68.3999 7.4236 71.4308 7.4236C74.2941 7.4236 76.4738 8.34851 77.9442 10.1853C79.4145 12.0351 80.1497 14.3018 80.1497 16.9983C80.1497 18.1056 80.1239 18.9263 80.0723 19.4474H67.3939C67.5229 21.1539 68.0259 22.3002 68.9158 22.8864C69.8057 23.4596 70.9536 23.7592 72.3724 23.7592ZM74.0878 12.7125C73.4171 11.7746 72.5014 11.3056 71.3277 11.3056C70.154 11.3056 69.2382 11.6834 68.5805 12.452C67.9227 13.2205 67.5357 14.4581 67.4068 16.1646H75.2873C75.1583 14.7968 74.7584 13.6504 74.0878 12.7125ZM83.5547 9.57303C83.8771 9.41671 84.3156 9.23433 84.8702 9.0259C85.4377 8.81747 86.5598 8.51786 88.2494 8.12705C89.939 7.73625 91.6286 7.52782 93.2924 7.50176V11.5792C91.332 11.6052 89.6424 11.8267 88.2494 12.2305V27.511H83.5418V9.57303H83.5547ZM101.405 5.10483H96.5813V0.832031H101.405V5.10483ZM101.366 27.524H96.6587V7.78835H101.366V27.524ZM111.942 7.48874C114.728 7.48874 116.869 8.20521 118.34 9.63816C119.81 11.0711 120.558 13.1424 120.558 15.865V21.193C120.558 23.0037 119.887 24.5669 118.546 25.8696C117.205 27.1723 115.141 27.8236 112.355 27.8236C109.466 27.8236 107.351 27.1592 105.984 25.8435C104.617 24.5278 103.933 22.9125 103.933 21.0236C103.933 20.6198 103.972 20.2159 104.049 19.7991C104.126 19.3822 104.333 18.8612 104.655 18.2359C104.978 17.6106 105.429 17.0504 105.997 16.5815C106.564 16.1125 107.39 15.6956 108.499 15.3569C109.595 15.0182 110.898 14.8489 112.407 14.8489C113.477 14.8489 114.612 14.9401 115.838 15.1225C115.838 12.6474 114.457 11.4098 111.697 11.4098C109.492 11.4098 107.583 11.7485 105.958 12.4129V8.53088C107.738 7.84046 109.737 7.48874 111.942 7.48874ZM115.85 20.6067V18.1447C114.754 17.9884 113.826 17.9102 113.052 17.8972C110.111 17.8972 108.641 18.7439 108.628 20.4374C108.628 22.5217 109.853 23.5638 112.304 23.5638C114.664 23.5769 115.85 22.5868 115.85 20.6067Z" fill="#FF891D"/>
<path d="M5.26576 8.32245C5.26576 9.1692 5.73007 9.83356 6.65871 10.3156C7.58734 10.7975 8.68364 11.2405 9.94762 11.6573C11.2116 12.0742 12.5143 12.5041 13.8427 12.947C15.1712 13.3899 16.2933 14.2627 17.1832 15.5654C18.0732 16.8811 18.5246 18.5615 18.5246 20.6458C18.5246 22.7562 17.6475 24.4887 15.9063 25.8305C14.1652 27.1723 12.037 27.8366 9.52199 27.8366C6.20729 27.8366 3.33111 27.1071 0.893445 25.6351V20.8412C3.13764 22.5347 5.65269 23.3815 8.42569 23.3815C12.037 23.3815 13.8298 22.3523 13.8169 20.2941C13.8169 19.3822 13.4945 18.6136 12.8367 18.0014C12.1918 17.3891 11.3664 16.9202 10.3861 16.6075C9.40591 16.2949 8.33541 15.9562 7.18751 15.5914C6.03962 15.2267 4.96911 14.8098 3.97599 14.3539C2.98287 13.8979 2.15742 13.1684 1.51253 12.1914C0.880547 11.2014 0.558105 9.98989 0.558105 8.54391C0.558105 5.99065 1.44805 4.07571 3.21503 2.77303C4.98201 1.48337 7.20041 0.832031 9.87023 0.832031C12.2176 0.832031 14.5521 1.44429 16.8866 2.66881V7.30636C14.8745 5.9646 12.7206 5.2872 10.4248 5.2872C8.98029 5.2872 7.76791 5.53471 6.76189 6.01671C5.75587 6.51172 5.26576 7.26728 5.26576 8.32245ZM34.5564 7.78835H39.2511V18.5876C39.2511 21.4795 38.4773 23.7462 36.9167 25.3876C35.356 27.029 33.2021 27.8366 30.4291 27.8366C27.6561 27.8366 25.5022 27.0159 23.9545 25.3876C22.4068 23.7592 21.6458 21.4926 21.6458 18.5876V7.78835H26.3535V19.278C26.3535 20.8673 26.6759 22.0136 27.3079 22.7171C27.9528 23.4205 28.9846 23.7592 30.4291 23.7592C31.8995 23.7592 32.9571 23.4075 33.5891 22.7171C34.2339 22.0136 34.5435 20.8673 34.5435 19.278V7.78835H34.5564ZM51.0396 7.51479C51.6845 7.51479 52.3294 7.5669 52.9743 7.67111C53.6192 7.77533 54.3672 8.04889 55.2443 8.47877C56.1084 8.92169 56.8565 9.48184 57.4756 10.1723C58.0946 10.8627 58.6363 11.8918 59.0878 13.2336C59.5392 14.5753 59.7713 16.1385 59.7713 17.8972C59.7713 21.1148 58.9846 23.5899 57.424 25.3094C55.8633 27.029 53.632 27.9018 50.7172 27.9018C49.6209 27.9018 48.5504 27.7845 47.5057 27.55V34.832H42.798V14.1585C42.798 12.3477 43.4687 10.7845 44.81 9.48184C46.1772 8.16613 48.2537 7.51479 51.0396 7.51479ZM50.4076 24.2412C51.9296 24.2412 53.0774 23.7983 53.8771 22.8995C54.6768 22.0006 55.0766 20.4244 55.0766 18.1577C55.0766 15.8389 54.7799 14.1715 54.1738 13.1424C53.5805 12.1133 52.5357 11.5922 51.0396 11.5922C48.6922 11.5922 47.5186 12.2956 47.5186 13.7156V24.0067C48.602 24.1631 49.5693 24.2412 50.4076 24.2412ZM72.3724 23.7592C74.6682 23.7592 76.8866 23.2512 79.0276 22.2351V26.065C76.8608 27.2504 74.4102 27.8366 71.663 27.8366C70.7989 27.8366 69.9863 27.7715 69.2124 27.6282C68.4515 27.4849 67.6518 27.1853 66.8393 26.7424C66.0138 26.2864 65.3173 25.7133 64.7241 25.0228C64.1308 24.3324 63.6535 23.3684 63.2666 22.1309C62.8926 20.9064 62.6991 19.4864 62.6991 17.8711C62.6991 14.6926 63.3956 12.1654 64.7885 10.2634C66.1815 8.36153 68.3999 7.4236 71.4308 7.4236C74.2941 7.4236 76.4738 8.34851 77.9442 10.1853C79.4145 12.0351 80.1497 14.3018 80.1497 16.9983C80.1497 18.1056 80.1239 18.9263 80.0723 19.4474H67.3939C67.5229 21.1539 68.0259 22.3002 68.9158 22.8864C69.8057 23.4596 70.9536 23.7592 72.3724 23.7592ZM74.0878 12.7125C73.4171 11.7746 72.5014 11.3056 71.3277 11.3056C70.154 11.3056 69.2382 11.6834 68.5805 12.452C67.9227 13.2205 67.5357 14.4581 67.4068 16.1646H75.2873C75.1583 14.7968 74.7584 13.6504 74.0878 12.7125ZM83.5547 9.57303C83.8771 9.41671 84.3156 9.23433 84.8702 9.0259C85.4377 8.81747 86.5598 8.51786 88.2494 8.12705C89.939 7.73625 91.6286 7.52782 93.2924 7.50176V11.5792C91.332 11.6052 89.6424 11.8267 88.2494 12.2305V27.511H83.5418V9.57303H83.5547ZM101.405 5.10483H96.5813V0.832031H101.405V5.10483ZM101.366 27.524H96.6587V7.78835H101.366V27.524ZM111.942 7.48874C114.728 7.48874 116.869 8.20521 118.34 9.63816C119.81 11.0711 120.558 13.1424 120.558 15.865V21.193C120.558 23.0037 119.887 24.5669 118.546 25.8696C117.205 27.1723 115.141 27.8236 112.355 27.8236C109.466 27.8236 107.351 27.1592 105.984 25.8435C104.617 24.5278 103.933 22.9125 103.933 21.0236C103.933 20.6198 103.972 20.2159 104.049 19.7991C104.126 19.3822 104.333 18.8612 104.655 18.2359C104.978 17.6106 105.429 17.0504 105.997 16.5815C106.564 16.1125 107.39 15.6956 108.499 15.3569C109.595 15.0182 110.898 14.8489 112.407 14.8489C113.477 14.8489 114.612 14.9401 115.838 15.1225C115.838 12.6474 114.457 11.4098 111.697 11.4098C109.492 11.4098 107.583 11.7485 105.958 12.4129V8.53088C107.738 7.84046 109.737 7.48874 111.942 7.48874ZM115.85 20.6067V18.1447C114.754 17.9884 113.826 17.9102 113.052 17.8972C110.111 17.8972 108.641 18.7439 108.628 20.4374C108.628 22.5217 109.853 23.5638 112.304 23.5638C114.664 23.5769 115.85 22.5868 115.85 20.6067Z" fill="#FF891D"/>
</svg>
