<svg width="174" height="50" viewBox="0 0 174 50" fill="none" xmlns="http://www.w3.org/2000/svg">
<path d="M6.8261 11.0153C6.8261 12.2605 7.49935 13.2375 8.84587 13.9464C10.1924 14.6552 11.782 15.3065 13.6148 15.9195C15.4475 16.5326 17.3364 17.1648 19.2627 17.8161C21.189 18.4674 22.816 19.751 24.1064 21.6667C25.3968 23.6015 26.0514 26.0728 26.0514 29.1379C26.0514 32.2414 24.7797 34.7893 22.2549 36.7625C19.7302 38.7356 16.6445 39.7126 12.9976 39.7126C8.19132 39.7126 4.02085 38.6398 0.486242 36.4751V29.4253C3.74033 31.9157 7.38715 33.1609 11.408 33.1609C16.6445 33.1609 19.244 31.6475 19.2253 28.6207C19.2253 27.2797 18.7577 26.1494 17.804 25.249C16.8689 24.3487 15.672 23.659 14.2506 23.1992C12.8293 22.7395 11.2771 22.2414 9.61264 21.705C7.94819 21.1686 6.39596 20.5556 4.95593 19.8851C3.51591 19.2146 2.319 18.1418 1.38392 16.705C0.467541 15.249 0 13.4674 0 11.341C0 7.58621 1.29041 4.77011 3.85254 2.85441C6.41466 0.957854 9.63134 0 13.5026 0C16.9063 0 20.2913 0.900383 23.6763 2.70115V9.52107C20.7588 7.54789 17.6356 6.55172 14.3068 6.55172C12.2122 6.55172 10.4542 6.91571 8.99549 7.62452C7.53676 8.35249 6.8261 9.4636 6.8261 11.0153ZM49.2975 10.2299H56.1049V26.1111C56.1049 30.364 54.9828 33.6973 52.7199 36.1111C50.457 38.5249 47.3338 39.7126 43.313 39.7126C39.2921 39.7126 36.169 38.5057 33.9248 36.1111C31.6806 33.7165 30.5772 30.3831 30.5772 26.1111V10.2299H37.4033V27.1264C37.4033 29.4636 37.8708 31.1494 38.7872 32.1839C39.7223 33.2184 41.2184 33.7165 43.313 33.7165C45.445 33.7165 46.9785 33.1992 47.8949 32.1839C48.83 31.1494 49.2788 29.4636 49.2788 27.1264V10.2299H49.2975ZM73.1982 9.82759C74.1333 9.82759 75.0684 9.90421 76.0034 10.0575C76.9385 10.2107 78.0232 10.613 79.2949 11.2452C80.5479 11.8966 81.6326 12.7203 82.5303 13.7356C83.428 14.751 84.2135 16.2644 84.868 18.2375C85.5226 20.2107 85.8592 22.5096 85.8592 25.0958C85.8592 29.8276 84.7184 33.4674 82.4555 35.9962C80.1926 38.5249 76.9572 39.8084 72.7307 39.8084C71.141 39.8084 69.5888 39.636 68.0739 39.2912V50H61.2479V19.5977C61.2479 16.9349 62.2203 14.636 64.1653 12.7203C66.1477 10.7854 69.1586 9.82759 73.1982 9.82759ZM72.2818 34.4253C74.4886 34.4253 76.1531 33.7739 77.3126 32.4521C78.4721 31.1303 79.0518 28.8123 79.0518 25.4789C79.0518 22.069 78.6217 19.6169 77.7427 18.1034C76.8824 16.59 75.3676 15.8238 73.1982 15.8238C69.7945 15.8238 68.0927 16.8582 68.0927 18.9464V34.0805C69.6636 34.3103 71.0662 34.4253 72.2818 34.4253ZM104.131 33.7165C107.46 33.7165 110.676 32.9693 113.781 31.4751V37.1073C110.639 38.8506 107.086 39.7126 103.102 39.7126C101.849 39.7126 100.671 39.6169 99.5488 39.4061C98.4454 39.1954 97.2859 38.7548 96.1077 38.1034C94.9108 37.4329 93.9009 36.59 93.0406 35.5747C92.1804 34.5594 91.4884 33.1418 90.9273 31.3218C90.385 29.5211 90.1045 27.433 90.1045 25.0575C90.1045 20.3831 91.1144 16.6667 93.1341 13.8697C95.1539 11.0728 98.3706 9.69349 102.765 9.69349C106.917 9.69349 110.078 11.0536 112.21 13.7548C114.342 16.4751 115.408 19.8084 115.408 23.7739C115.408 25.4023 115.37 26.6092 115.296 27.3755H96.9119C97.0989 29.8851 97.8282 31.5709 99.1187 32.4329C100.409 33.2759 102.074 33.7165 104.131 33.7165ZM106.618 17.4713C105.646 16.092 104.318 15.4023 102.616 15.4023C100.914 15.4023 99.5862 15.9579 98.6324 17.0881C97.6786 18.2184 97.1176 20.0383 96.9306 22.5479H108.357C108.17 20.5364 107.59 18.8506 106.618 17.4713ZM120.345 12.8544C120.813 12.6245 121.448 12.3563 122.253 12.0498C123.075 11.7433 124.702 11.3027 127.152 10.728C129.602 10.1533 132.052 9.84674 134.465 9.80843V15.8046C131.622 15.8429 129.172 16.1686 127.152 16.7625V39.2337H120.326V12.8544H120.345ZM146.228 6.28352H139.234V0H146.228V6.28352ZM146.172 39.2529H139.346V10.2299H146.172V39.2529ZM161.507 9.78927C165.547 9.78927 168.651 10.8429 170.783 12.9502C172.915 15.0575 174 18.1034 174 22.1073V29.9425C174 32.6054 173.028 34.9042 171.083 36.8199C169.138 38.7356 166.145 39.6935 162.106 39.6935C157.917 39.6935 154.85 38.7165 152.867 36.7816C150.885 34.8467 149.894 32.4713 149.894 29.6935C149.894 29.0996 149.95 28.5057 150.062 27.8927C150.174 27.2797 150.473 26.5134 150.941 25.5939C151.408 24.6743 152.063 23.8506 152.886 23.1609C153.709 22.4713 154.906 21.8582 156.514 21.3602C158.104 20.8621 159.992 20.613 162.181 20.613C163.733 20.613 165.379 20.7471 167.155 21.0153C167.155 17.3755 165.154 15.5556 161.152 15.5556C157.954 15.5556 155.186 16.0536 152.83 17.0307V11.3218C155.411 10.3065 158.309 9.78927 161.507 9.78927ZM167.174 29.0805V25.4598C165.584 25.2299 164.238 25.1149 163.116 25.0958C158.852 25.0958 156.72 26.341 156.701 28.8314C156.701 31.8966 158.478 33.4291 162.031 33.4291C165.453 33.4483 167.174 31.9923 167.174 29.0805Z" fill="#FF891D"/>
<path d="M6.8261 11.0153C6.8261 12.2605 7.49935 13.2375 8.84587 13.9464C10.1924 14.6552 11.782 15.3065 13.6148 15.9195C15.4475 16.5326 17.3364 17.1648 19.2627 17.8161C21.189 18.4674 22.816 19.751 24.1064 21.6667C25.3968 23.6015 26.0514 26.0728 26.0514 29.1379C26.0514 32.2414 24.7797 34.7893 22.2549 36.7625C19.7302 38.7356 16.6445 39.7126 12.9976 39.7126C8.19132 39.7126 4.02085 38.6398 0.486242 36.4751V29.4253C3.74033 31.9157 7.38715 33.1609 11.408 33.1609C16.6445 33.1609 19.244 31.6475 19.2253 28.6207C19.2253 27.2797 18.7577 26.1494 17.804 25.249C16.8689 24.3487 15.672 23.659 14.2506 23.1992C12.8293 22.7395 11.2771 22.2414 9.61264 21.705C7.94819 21.1686 6.39596 20.5556 4.95593 19.8851C3.51591 19.2146 2.319 18.1418 1.38392 16.705C0.467541 15.249 0 13.4674 0 11.341C0 7.58621 1.29041 4.77011 3.85254 2.85441C6.41466 0.957854 9.63134 0 13.5026 0C16.9063 0 20.2913 0.900383 23.6763 2.70115V9.52107C20.7588 7.54789 17.6356 6.55172 14.3068 6.55172C12.2122 6.55172 10.4542 6.91571 8.99549 7.62452C7.53676 8.35249 6.8261 9.4636 6.8261 11.0153ZM49.2975 10.2299H56.1049V26.1111C56.1049 30.364 54.9828 33.6973 52.7199 36.1111C50.457 38.5249 47.3338 39.7126 43.313 39.7126C39.2921 39.7126 36.169 38.5057 33.9248 36.1111C31.6806 33.7165 30.5772 30.3831 30.5772 26.1111V10.2299H37.4033V27.1264C37.4033 29.4636 37.8708 31.1494 38.7872 32.1839C39.7223 33.2184 41.2184 33.7165 43.313 33.7165C45.445 33.7165 46.9785 33.1992 47.8949 32.1839C48.83 31.1494 49.2788 29.4636 49.2788 27.1264V10.2299H49.2975ZM73.1982 9.82759C74.1333 9.82759 75.0684 9.90421 76.0034 10.0575C76.9385 10.2107 78.0232 10.613 79.2949 11.2452C80.5479 11.8966 81.6326 12.7203 82.5303 13.7356C83.428 14.751 84.2135 16.2644 84.868 18.2375C85.5226 20.2107 85.8592 22.5096 85.8592 25.0958C85.8592 29.8276 84.7184 33.4674 82.4555 35.9962C80.1926 38.5249 76.9572 39.8084 72.7307 39.8084C71.141 39.8084 69.5888 39.636 68.0739 39.2912V50H61.2479V19.5977C61.2479 16.9349 62.2203 14.636 64.1653 12.7203C66.1477 10.7854 69.1586 9.82759 73.1982 9.82759ZM72.2818 34.4253C74.4886 34.4253 76.1531 33.7739 77.3126 32.4521C78.4721 31.1303 79.0518 28.8123 79.0518 25.4789C79.0518 22.069 78.6217 19.6169 77.7427 18.1034C76.8824 16.59 75.3676 15.8238 73.1982 15.8238C69.7945 15.8238 68.0927 16.8582 68.0927 18.9464V34.0805C69.6636 34.3103 71.0662 34.4253 72.2818 34.4253ZM104.131 33.7165C107.46 33.7165 110.676 32.9693 113.781 31.4751V37.1073C110.639 38.8506 107.086 39.7126 103.102 39.7126C101.849 39.7126 100.671 39.6169 99.5488 39.4061C98.4454 39.1954 97.2859 38.7548 96.1077 38.1034C94.9108 37.4329 93.9009 36.59 93.0406 35.5747C92.1804 34.5594 91.4884 33.1418 90.9273 31.3218C90.385 29.5211 90.1045 27.433 90.1045 25.0575C90.1045 20.3831 91.1144 16.6667 93.1341 13.8697C95.1539 11.0728 98.3706 9.69349 102.765 9.69349C106.917 9.69349 110.078 11.0536 112.21 13.7548C114.342 16.4751 115.408 19.8084 115.408 23.7739C115.408 25.4023 115.37 26.6092 115.296 27.3755H96.9119C97.0989 29.8851 97.8282 31.5709 99.1187 32.4329C100.409 33.2759 102.074 33.7165 104.131 33.7165ZM106.618 17.4713C105.646 16.092 104.318 15.4023 102.616 15.4023C100.914 15.4023 99.5862 15.9579 98.6324 17.0881C97.6786 18.2184 97.1176 20.0383 96.9306 22.5479H108.357C108.17 20.5364 107.59 18.8506 106.618 17.4713ZM120.345 12.8544C120.813 12.6245 121.448 12.3563 122.253 12.0498C123.075 11.7433 124.702 11.3027 127.152 10.728C129.602 10.1533 132.052 9.84674 134.465 9.80843V15.8046C131.622 15.8429 129.172 16.1686 127.152 16.7625V39.2337H120.326V12.8544H120.345ZM146.228 6.28352H139.234V0H146.228V6.28352ZM146.172 39.2529H139.346V10.2299H146.172V39.2529ZM161.507 9.78927C165.547 9.78927 168.651 10.8429 170.783 12.9502C172.915 15.0575 174 18.1034 174 22.1073V29.9425C174 32.6054 173.028 34.9042 171.083 36.8199C169.138 38.7356 166.145 39.6935 162.106 39.6935C157.917 39.6935 154.85 38.7165 152.867 36.7816C150.885 34.8467 149.894 32.4713 149.894 29.6935C149.894 29.0996 149.95 28.5057 150.062 27.8927C150.174 27.2797 150.473 26.5134 150.941 25.5939C151.408 24.6743 152.063 23.8506 152.886 23.1609C153.709 22.4713 154.906 21.8582 156.514 21.3602C158.104 20.8621 159.992 20.613 162.181 20.613C163.733 20.613 165.379 20.7471 167.155 21.0153C167.155 17.3755 165.154 15.5556 161.152 15.5556C157.954 15.5556 155.186 16.0536 152.83 17.0307V11.3218C155.411 10.3065 158.309 9.78927 161.507 9.78927ZM167.174 29.0805V25.4598C165.584 25.2299 164.238 25.1149 163.116 25.0958C158.852 25.0958 156.72 26.341 156.701 28.8314C156.701 31.8966 158.478 33.4291 162.031 33.4291C165.453 33.4483 167.174 31.9923 167.174 29.0805Z" fill="#FF891D"/>
</svg>
